<svg viewBox="0 0 24 24" fill="none" xmlns="http://www.w3.org/2000/svg">
<path d="M21.3333 0H2.66667C1.2 0 0 1.2 0 2.66667V12C0 13.4667 1.2 14.6667 2.66667 14.6667H21.3333C22.8 14.6667 24 13.4667 24 12V2.66667C24 1.2 22.8 0 21.3333 0ZM21.3333 8H17.1467C16.52 8 16.0267 8.44 15.8533 9.04C15.3733 10.72 13.8 12 12 12C10.2 12 8.62667 10.72 8.14667 9.04C7.97333 8.44 7.48 8 6.85333 8H2.66667V4C2.66667 3.26667 3.26667 2.66667 4 2.66667H20C20.7333 2.66667 21.3333 3.26667 21.3333 4V8ZM17.16 17.3333H22.6667C23.4 17.3333 24 17.9333 24 18.6667V21.3333C24 22.8 22.8 24 21.3333 24H2.66667C1.2 24 0 22.8 0 21.3333V18.6667C0 17.9333 0.6 17.3333 1.33333 17.3333H6.84C7.46667 17.3333 7.97333 17.7867 8.14667 18.4C8.61333 20.0933 10.16 21.3333 12 21.3333C13.84 21.3333 15.3867 20.0933 15.8533 18.4C16.0267 17.7867 16.5333 17.3333 17.16 17.3333Z" fill="#323232"/>
</svg>
