<svg viewBox="0 0 24 24" fill="none" xmlns="http://www.w3.org/2000/svg">
<path d="M12 3.46641L21.4803 19.5305H2.51973L12 3.46641ZM0.341656 18.2958C-0.627774 19.938 0.580866 22 2.51973 22H21.4803C23.4191 22 24.6278 19.938 23.6583 18.2958L14.1781 2.23166C13.2086 0.589446 10.7914 0.589446 9.82193 2.23166L0.341656 18.2958ZM10.741 9.65251V12.122C10.741 12.8011 11.3075 13.3568 12 13.3568C12.6925 13.3568 13.259 12.8011 13.259 12.122V9.65251C13.259 8.97339 12.6925 8.41776 12 8.41776C11.3075 8.41776 10.741 8.97339 10.741 9.65251ZM10.741 15.8263H13.259V18.2958H10.741V15.8263Z" fill="#323232"/>
</svg>
